<?xml version="1.0" encoding="UTF-8"?>
<svg id="Layer_1" data-name="Layer 1" xmlns="http://www.w3.org/2000/svg" viewBox="0 0 543 126.62">
  <defs>
    <style>
      .cls-1 {
        fill: #f25353;
      }

      .cls-2 {
        fill: #231f20;
      }

      .cls-3 {
        font-family: BookAntiqua-Bold, 'Book Antiqua';
        font-size: 77.65px;
        font-weight: 700;
        letter-spacing: -.02em;
      }
    </style>
  </defs>
  <path class="cls-1" d="M71.87,41.43c.87.63,1.75.36,2.59.57,5.85,1.46,14.11,6.12,17.96,10.76,5.78,6.97,6.85,17.81-.02,24.45-.83.8-2.87,2.29-3.95,2.95-.09.06-1.58.62-1.92.74-1.06.39-2.57.33-3.68.61-2.81.71-4.6,3.24-6.69,5.15-3.19,2.91-6.35,5.91-9.7,8.94-.67.61-2.78,2.74-3.28,3.02-.56.32-.89.29-1.5.22-1.64-.19-1.1-.82-1.78-1.5-4.32-4.24-8.8-8.01-13.4-12.17-.4-.36-2.9-2.97-3.1-3.06-1.22-.59-4.15-.76-5.6-1.21-5.86-1.8-10.45-8.11-10.78-14.16-.75-13.65,12.61-22.34,24.29-24.83.44-.09.71-.46,1.15-.49.11-.17-2.26-2.54-2.46-3.2-.49-1.6-.71-6.99-.5-8.7.69-5.44,5.94-10.49,11.4-11.02,13.06-1.28,19.77,13.6,10.96,22.92Z"/>
  <path class="cls-1" d="M66.67,119.34c3.25-15.61,18.11-22.04,29.76-31.06.8-.43,4.7-4.99,5.06-5.04,1.5-.2.58,2.71.3,3.6-.82,2.61-3.4,6.31-5.22,8.38-2.81,3.2-6.33,5.19-9.72,7.66-1.19,2.07.58,2.85,2.52,2.52,19.29-3.26,30.07-22.54,34.8-39.77,2.54-2.45,2.27,2.3,2.12,3.88-2.82,30.11-26.69,52.95-56.27,56.59-1.14.14-3.86,1.4-3.96-.66.41-2.05.18-4.04.61-6.1Z"/>
  <path class="cls-1" d="M12.51,88.96c5.64,7.94,14.64,14.78,24.48,16.45,1.63.28,3.28-.1,2.82-2.06-.28-1.19-2.17-1.65-3.05-2.24-4.63-3.12-9.39-7.59-11.62-12.82-.61-1.43-.76-2.75-1.3-4.15.3-.44.32-1.09.99-.84.34.13,3.77,3.78,4.45,4.38,12.73,11.05,30.51,16.63,31,36.76.08,3.36-1.57,1.93-3.69,1.68-14-1.7-25.89-6.68-36.38-16.27C9.74,100.24,1.23,84.26.08,70.02c-.08-.97-.46-5.88,1.5-5.05.89.38,1.92,5.28,2.35,6.48,2.05,5.62,5.18,12.71,8.57,17.5Z"/>
  <path class="cls-1" d="M124.77,50c-.97-.74-.93-2.32-1.33-3.33-5.34-13.29-16.05-25.7-28.56-32.65C60.3-5.2,17.23,10.56,2.72,46.97c-.2.51-.58,2.69-.88,3.03-.11.12-.69.05-.51-.38,1.26-6.53,4.16-12.45,7.06-18.39,3.54-5.39,7.34-10.24,12.09-14.61C54.8-14.96,110.34.66,123.63,44.97c.5,1.66,1.23,3.11,1.15,5.02Z"/>
  <path class="cls-2" d="M61.79,71.66c-.11.11-.35.03-.52-.16-.52-.57-1.18-2.15-1.78-2.95-.88-1.18-2.36-3.32-3.97-2.29-2.58,1.64.26,3.35,1.35,4.92,1.24,1.78,3.64,8.76,6.31,5.25,1.49-1.96,2.79-4.99,4.37-7.22,3.7-5.23,7.88-8.95,13.03-12.67.78-.56.9-1.61,1.75-.24,1.14,1.82,2.42,6.03,2.43,8.18,0,.5-.27,3.09-.41,3.4-.57,1.3-4.16.61-5.52.78-1.84.23-5.19,1.74-6.45,3.12-3.02,3.29-1.17,6.66,2.02,8.82l-10.57,9.83c-.59.32-1.19,1.19-1.87,1.14l-11.99-10.72c-.2-.86.54-.6,1-1.01,1.98-1.74,2.78-3.61,1.96-6.22-1.13-3.57-6.8-5.08-10.17-5.22-.71-.03-2.54.71-2.82-.18-.2-.62-.3-3.45-.28-4.25.18-7.32,6.41-15.18,14.36-13.11,3.42.89,6.03,5.63,7.94,5.7,1.75.06,3.87-3.27,5.28-4.31,2.66-1.96,6.7-2.2,9.67-.85.6.27,2.44,1.2,1.81,2-.51.64-3.67,2.56-4.67,3.4-4.82,4.03-9.31,9.32-12.23,14.86Z"/>
  <text class="cls-3" transform="translate(133.92 98.78)"><tspan x="0" y="0">CAREPASS</tspan></text>
</svg>